<svg width="154" height="133" viewBox="0 0 154 133" fill="none" xmlns="http://www.w3.org/2000/svg">
<path d="M113.47 48.9115L82.81 2.9431C81.48 0.981033 79.24 0 77 0C74.76 0 72.52 0.981033 71.19 3.01317L40.53 48.9115H7C3.15 48.9115 0 52.0648 0 55.9189C0 56.5495 0.0699997 57.1802 0.28 57.8109L18.06 122.769C19.67 128.655 25.06 133 31.5 133H122.5C128.94 133 134.33 128.655 136.01 122.769L153.79 57.8109L154 55.9189C154 52.0648 150.85 48.9115 147 48.9115H113.47ZM56 48.9115L77 18.079L98 48.9115H56ZM77 104.97C69.3 104.97 63 98.6639 63 90.9557C63 83.2476 69.3 76.941 77 76.941C84.7 76.941 91 83.2476 91 90.9557C91 98.6639 84.7 104.97 77 104.97Z" fill="#DDDDDD"/>
</svg>
