<svg width="36" height="36" viewBox="0 0 36 36" fill="none" xmlns="http://www.w3.org/2000/svg">
<path d="M15.627 21.5637L21.2238 18.3946L15.627 15.2255V21.5637ZM28.0931 13.2923C28.2333 13.7888 28.3303 14.4543 28.395 15.2994C28.4705 16.1445 28.5029 16.8734 28.5029 17.5072L28.5676 18.3946C28.5676 20.708 28.395 22.4088 28.0931 23.4969C27.8235 24.4476 27.198 25.0603 26.2275 25.3244C25.7206 25.4617 24.7932 25.5568 23.3698 25.6202C21.9679 25.6941 20.6846 25.7258 19.4984 25.7258L17.7838 25.7892C13.2654 25.7892 10.4508 25.6202 9.34008 25.3244C8.36954 25.0603 7.74408 24.4476 7.47449 23.4969C7.3343 23.0004 7.23724 22.3349 7.17254 21.4898C7.09705 20.6447 7.0647 19.9158 7.0647 19.2819L7 18.3946C7 16.0811 7.17254 14.3804 7.47449 13.2923C7.74408 12.3416 8.36954 11.7289 9.34008 11.4648C9.84692 11.3275 10.7743 11.2324 12.1978 11.169C13.5997 11.0951 14.8829 11.0634 16.0692 11.0634L17.7838 11C22.3022 11 25.1168 11.169 26.2275 11.4648C27.198 11.7289 27.8235 12.3416 28.0931 13.2923Z" fill="white"/>
</svg>
