<svg width="36" height="36" viewBox="0 0 36 36" fill="none" xmlns="http://www.w3.org/2000/svg">
<path d="M13.2546 7H22.313C25.7638 7 28.5676 9.88389 28.5676 13.4333V22.7505C28.5676 24.4567 27.9086 26.093 26.7356 27.2995C25.5627 28.506 23.9718 29.1838 22.313 29.1838H13.2546C9.80378 29.1838 7 26.2999 7 22.7505V13.4333C7 11.7271 7.65896 10.0907 8.83193 8.88427C10.0049 7.67779 11.5958 7 13.2546 7ZM13.0389 9.21838C12.0093 9.21838 11.0219 9.63908 10.2938 10.3879C9.56577 11.1368 9.15676 12.1524 9.15676 13.2115V22.9723C9.15676 25.1796 10.8929 26.9654 13.0389 26.9654H22.5286C23.5583 26.9654 24.5457 26.5447 25.2738 25.7959C26.0018 25.047 26.4108 24.0314 26.4108 22.9723V13.2115C26.4108 11.0042 24.6746 9.21838 22.5286 9.21838H13.0389ZM23.4453 10.8822C23.8028 10.8822 24.1456 11.0282 24.3984 11.2883C24.6512 11.5483 24.7932 11.9009 24.7932 12.2686C24.7932 12.6364 24.6512 12.989 24.3984 13.249C24.1456 13.5091 23.8028 13.6551 23.4453 13.6551C23.0878 13.6551 22.7449 13.5091 22.4921 13.249C22.2393 12.989 22.0973 12.6364 22.0973 12.2686C22.0973 11.9009 22.2393 11.5483 22.4921 11.2883C22.7449 11.0282 23.0878 10.8822 23.4453 10.8822ZM17.7838 12.5459C19.2138 12.5459 20.5853 13.1302 21.5964 14.1703C22.6076 15.2104 23.1757 16.621 23.1757 18.0919C23.1757 19.5628 22.6076 20.9734 21.5964 22.0135C20.5853 23.0535 19.2138 23.6378 17.7838 23.6378C16.3538 23.6378 14.9823 23.0535 13.9711 22.0135C12.96 20.9734 12.3919 19.5628 12.3919 18.0919C12.3919 16.621 12.96 15.2104 13.9711 14.1703C14.9823 13.1302 16.3538 12.5459 17.7838 12.5459ZM17.7838 14.7643C16.9258 14.7643 16.1029 15.1149 15.4962 15.7389C14.8895 16.363 14.5486 17.2094 14.5486 18.0919C14.5486 18.9744 14.8895 19.8208 15.4962 20.4448C16.1029 21.0689 16.9258 21.4195 17.7838 21.4195C18.6418 21.4195 19.4647 21.0689 20.0714 20.4448C20.6781 19.8208 21.0189 18.9744 21.0189 18.0919C21.0189 17.2094 20.6781 16.363 20.0714 15.7389C19.4647 15.1149 18.6418 14.7643 17.7838 14.7643Z" fill="white"/>
</svg>
