<svg width="36" height="36" viewBox="0 0 36 36" fill="none" xmlns="http://www.w3.org/2000/svg">
<path d="M17.7838 7C11.8527 7 7 11.8614 7 17.8487C7 23.2623 10.9469 27.7555 16.1015 28.5676V20.9886H13.3624V17.8487H16.1015V15.456C16.1015 12.7384 17.7083 11.2442 20.1778 11.2442C21.3532 11.2442 22.5825 11.4499 22.5825 11.4499V14.1242H21.2238C19.8866 14.1242 19.466 14.9579 19.466 15.8133V17.8487H22.4639L21.9787 20.9886H19.466V28.5676C22.0072 28.1646 24.3211 26.8629 25.9901 24.8972C27.6592 22.9316 28.5733 20.4317 28.5675 17.8487C28.5675 11.8614 23.7148 7 17.7838 7Z" fill="white"/>
</svg>
