<svg width="147" height="68" viewBox="0 0 147 68" fill="none" xmlns="http://www.w3.org/2000/svg">
<ellipse cx="73.5" cy="34" rx="62.5" ry="23" fill="white"/>
<path d="M73.5 58.5C91.0795 58.5 107.017 55.8078 118.578 51.4383C124.357 49.2542 129.068 46.6414 132.343 43.7147C135.618 40.7883 137.5 37.5065 137.5 34C137.5 30.4935 135.618 27.2117 132.343 24.2853C129.068 21.3586 124.357 18.7458 118.578 16.5617C107.017 12.1922 91.0795 9.5 73.5 9.5C55.9205 9.5 39.9829 12.1922 28.4219 16.5617C22.6433 18.7458 17.9322 21.3586 14.657 24.2853C11.3821 27.2117 9.5 30.4935 9.5 34C9.5 37.5065 11.3821 40.7883 14.657 43.7147C17.9322 46.6414 22.6433 49.2542 28.4219 51.4383C39.9829 55.8078 55.9205 58.5 73.5 58.5Z" stroke="white"/>
<path d="M36.0449 41.2051C35.7168 41.2051 35.3682 41.1777 34.999 41.123C34.6299 41.082 34.3223 41.0342 34.0762 40.9795C33.5703 40.8838 33.2012 40.8086 32.9688 40.7539C32.75 40.6855 32.5449 40.6377 32.3535 40.6104C32.1758 39.7627 32.0459 39.0723 31.9639 38.5391C31.8818 37.9922 31.8408 37.5957 31.8408 37.3496C31.8408 37.2676 31.9502 37.2266 32.1689 37.2266C32.415 37.2266 32.5859 37.2881 32.6816 37.4111C33.1602 39.3799 34.2949 40.3643 36.0859 40.3643C36.7695 40.3643 37.3506 40.1592 37.8291 39.749C38.3076 39.3389 38.5469 38.7578 38.5469 38.0059C38.5469 37.7598 38.4922 37.459 38.3828 37.1035C38.2871 36.748 38.0615 36.4404 37.7061 36.1807C37.4326 35.9756 37.207 35.8252 37.0293 35.7295C36.8516 35.6201 36.6738 35.5244 36.4961 35.4424C36.3184 35.3467 36.0928 35.2168 35.8193 35.0527L34.999 34.5605C34.5752 34.3008 34.1514 34.0068 33.7275 33.6787C33.3037 33.3369 32.9482 32.9404 32.6611 32.4893C32.3877 32.0381 32.251 31.5254 32.251 30.9512C32.251 30.2266 32.4355 29.5977 32.8047 29.0645C33.1875 28.5176 33.6797 28.0938 34.2812 27.793C34.8965 27.4922 35.5596 27.3418 36.2705 27.3418C36.5713 27.3418 36.8516 27.3623 37.1113 27.4033C37.3848 27.4307 37.6104 27.4648 37.7881 27.5059C38.1982 27.6016 38.4854 27.6768 38.6494 27.7314C38.8271 27.7861 39.0664 27.8477 39.3672 27.916C39.5312 28.627 39.6133 29.6045 39.6133 30.8486C39.6133 30.9443 39.5449 30.9922 39.4082 30.9922C39.0664 30.9922 38.8887 30.9238 38.875 30.7871C38.8066 30.377 38.6562 29.9736 38.4238 29.5771C38.1914 29.1807 37.877 28.8525 37.4805 28.5928C37.084 28.3193 36.6123 28.1826 36.0654 28.1826C35.5049 28.1826 35.0674 28.292 34.7529 28.5107C34.4385 28.7158 34.2129 28.9824 34.0762 29.3105C33.9531 29.625 33.8916 29.96 33.8916 30.3154C33.8916 30.6572 33.9736 30.999 34.1377 31.3408C34.3018 31.6826 34.541 31.9697 34.8555 32.2021C35.2793 32.5166 35.7031 32.8105 36.127 33.084C36.5645 33.3574 37.0156 33.6377 37.4805 33.9248C37.918 34.1982 38.3555 34.5059 38.793 34.8477C39.2305 35.1758 39.5928 35.5518 39.8799 35.9756C40.1807 36.3994 40.3311 36.8916 40.3311 37.4521C40.3311 38.1768 40.1328 38.8262 39.7363 39.4004C39.3398 39.9609 38.8135 40.4053 38.1572 40.7334C37.5146 41.0479 36.8105 41.2051 36.0449 41.2051ZM51.1945 41.0615C51.1398 41.0068 51.1124 40.9111 51.1124 40.7744C51.1124 40.5967 51.1398 40.5078 51.1945 40.5078C51.3038 40.5078 51.4542 40.4873 51.6456 40.4463C51.8507 40.4053 52.0353 40.3506 52.1993 40.2822C52.3771 40.2002 52.4796 40.125 52.507 40.0566C52.5616 39.8379 52.6027 39.5645 52.63 39.2363C52.6573 38.9082 52.671 38.5254 52.671 38.0879V35.5244C52.671 35.333 52.5275 34.9502 52.2404 34.376C52.09 34.1025 51.8029 33.5762 51.379 32.7969C50.9552 32.0176 50.3878 30.999 49.6769 29.7412C49.4581 29.3311 49.2872 29.0508 49.1642 28.9004C49.0548 28.7363 48.8907 28.5791 48.672 28.4287C48.5216 28.3193 48.296 28.2168 47.9952 28.1211C47.6945 28.0254 47.4757 27.9775 47.339 27.9775C47.2843 27.9775 47.257 27.9023 47.257 27.752C47.257 27.5879 47.2843 27.4785 47.339 27.4238L48.4464 27.4854C48.7062 27.499 48.9454 27.5127 49.1642 27.5264C49.3966 27.54 49.6085 27.5469 49.7999 27.5469C49.964 27.5469 50.8663 27.5059 52.507 27.4238C52.5343 27.4785 52.5411 27.5879 52.5275 27.752C52.5275 27.9023 52.507 27.9775 52.4659 27.9775C52.2335 27.9775 51.9669 28.0391 51.6661 28.1621C51.379 28.2715 51.2355 28.4424 51.2355 28.6748C51.2355 28.8115 51.3107 29.0166 51.4611 29.29L53.7579 33.6377C53.84 33.7061 53.9083 33.6924 53.963 33.5967C55.8224 30.7939 56.7521 29.1465 56.7521 28.6543C56.7521 28.5039 56.6154 28.3535 56.3419 28.2031C56.0685 28.0527 55.7335 27.9775 55.337 27.9775C55.2823 27.9775 55.255 27.8955 55.255 27.7314C55.255 27.5811 55.2823 27.4785 55.337 27.4238L57.757 27.5469C57.9757 27.5605 58.1945 27.5605 58.4132 27.5469C58.632 27.5195 58.8507 27.499 59.0695 27.4854C59.5206 27.4443 59.8077 27.4238 59.9308 27.4238C59.9581 27.5332 59.9718 27.6357 59.9718 27.7314C59.9718 27.8955 59.9445 27.9775 59.8898 27.9775C59.7804 27.9775 59.6095 28.0049 59.3771 28.0596C59.1446 28.1143 58.9122 28.1895 58.6798 28.2852C58.4611 28.3809 58.3038 28.4902 58.2081 28.6133C58.003 28.9414 57.7433 29.3584 57.4288 29.8643C57.1144 30.3564 56.7863 30.8896 56.4445 31.4639C56.1027 32.0244 55.7814 32.5645 55.4806 33.084C55.1798 33.5898 54.9337 34.0205 54.7423 34.376C54.5509 34.7314 54.4552 34.9502 54.4552 35.0322V38.1494C54.4552 38.5732 54.4689 38.9424 54.4962 39.2568C54.5236 39.5713 54.5646 39.8379 54.6193 40.0566C54.6466 40.1113 54.7423 40.1797 54.9064 40.2617C55.0841 40.3301 55.2687 40.3916 55.4601 40.4463C55.6515 40.4873 55.7882 40.5078 55.8702 40.5078C55.9249 40.5078 55.9523 40.5967 55.9523 40.7744C55.9523 40.8564 55.9386 40.9521 55.9113 41.0615C55.2277 41.0342 54.6945 41.0137 54.3116 41C53.9288 40.9727 53.6964 40.959 53.6144 40.959L51.1945 41.0615ZM64.9905 41.0615C64.9358 41.0068 64.9084 40.9043 64.9084 40.7539C64.9084 40.5625 64.9358 40.4668 64.9905 40.4668C65.1545 40.4668 65.3664 40.4326 65.6262 40.3643C65.886 40.2959 66.0637 40.2002 66.1594 40.0771C66.3098 39.8857 66.4602 39.6328 66.6106 39.3184C66.7747 39.0039 66.9455 38.6143 67.1233 38.1494L70.6916 28.9824C70.7737 28.7773 70.8215 28.6338 70.8352 28.5518C70.8625 28.4697 70.883 28.4014 70.8967 28.3467C70.9241 28.2783 70.9719 28.1689 71.0403 28.0186C71.136 27.8271 71.2317 27.6768 71.3274 27.5674C71.4231 27.458 71.5803 27.4033 71.7991 27.4033L71.9836 27.4648L76.0852 38.293C76.2082 38.6074 76.3176 38.8877 76.4133 39.1338C76.5227 39.3799 76.6116 39.5918 76.6799 39.7695C76.7346 39.9062 76.8508 40.0293 77.0286 40.1387C77.22 40.2344 77.4114 40.3164 77.6028 40.3848C77.8079 40.4395 77.9651 40.4668 78.0745 40.4668C78.1291 40.4668 78.1565 40.5967 78.1565 40.8564C78.1565 40.8838 78.1497 40.918 78.136 40.959C78.136 40.9863 78.1291 41.0205 78.1155 41.0615C77.4319 41.0342 76.8987 41.0137 76.5159 41C76.1467 40.9727 75.928 40.959 75.8596 40.959L73.4807 41.0615C73.426 41.0068 73.3987 40.8975 73.3987 40.7334C73.4123 40.5557 73.4465 40.4668 73.5012 40.4668C73.6653 40.4668 73.8704 40.4326 74.1164 40.3643C74.3625 40.2959 74.5061 40.207 74.5471 40.0977C74.5608 40.043 74.5676 39.9883 74.5676 39.9336C74.5813 39.8789 74.5881 39.8242 74.5881 39.7695C74.5881 39.5918 74.5676 39.3867 74.5266 39.1543C74.4856 38.9082 74.4377 38.7168 74.383 38.5801L73.4602 36.0371C73.4192 35.9824 73.3782 35.9551 73.3372 35.9551C72.8039 35.9141 72.2844 35.8936 71.7786 35.8936C71.4231 35.8936 71.0266 35.9072 70.5891 35.9346C70.1653 35.9482 69.6936 35.9688 69.1741 35.9961L69.0715 36.0576L68.1897 38.3135C68.053 38.6553 67.9573 38.9424 67.9026 39.1748C67.8616 39.4072 67.8411 39.5918 67.8411 39.7285C67.8411 39.9199 67.8957 40.0566 68.0051 40.1387C68.1282 40.2344 68.3264 40.3164 68.5998 40.3848C68.8733 40.4395 69.0715 40.4668 69.1946 40.4668C69.2356 40.4668 69.2561 40.5488 69.2561 40.7129C69.2698 40.877 69.2629 40.9932 69.2356 41.0615L67.1233 40.959C66.7405 40.9316 66.3645 40.9385 65.9954 40.9795C65.6399 41.0068 65.3049 41.0342 64.9905 41.0615ZM71.0608 34.9092C71.676 34.9092 72.2981 34.8887 72.927 34.8477L72.9885 34.7451L71.3274 30.2129L69.5637 34.7861C69.5637 34.8408 69.5774 34.8682 69.6047 34.8682C69.9602 34.8818 70.2541 34.8955 70.4866 34.9092C70.7327 34.9092 70.9241 34.9092 71.0608 34.9092ZM87.0101 41.0615C86.9554 41.0068 86.9281 40.9043 86.9281 40.7539C86.9281 40.5625 86.9554 40.4668 87.0101 40.4668C87.1332 40.4668 87.2972 40.4531 87.5023 40.4258C87.7074 40.3848 87.8988 40.3301 88.0765 40.2617C88.2543 40.1934 88.3568 40.125 88.3841 40.0566C88.4388 39.8652 88.473 39.6191 88.4867 39.3184C88.514 39.0176 88.5277 38.6553 88.5277 38.2314V30.8076C88.5277 29.6182 88.4662 28.9141 88.3431 28.6953C88.2474 28.4902 87.5091 28.3877 86.1283 28.3877C85.6087 28.3877 85.2054 28.4355 84.9183 28.5312C84.6312 28.6133 84.4125 28.7842 84.2621 29.0439C84.1117 29.3037 83.9681 29.6934 83.8314 30.2129C83.8041 30.2812 83.7357 30.3154 83.6263 30.3154C83.3939 30.3154 83.2298 30.2676 83.1341 30.1719L83.5238 27.2393C83.8246 27.3076 84.0912 27.3623 84.3236 27.4033C84.556 27.4443 84.7611 27.4648 84.9388 27.4648C85.9232 27.4648 86.7914 27.4785 87.5433 27.5059C88.2953 27.5332 88.9242 27.5469 89.43 27.5469C90.4828 27.5469 91.3851 27.5332 92.1371 27.5059C92.9027 27.4785 93.5043 27.4648 93.9418 27.4648C94.1195 27.4648 94.3246 27.4443 94.557 27.4033C94.7894 27.3623 95.056 27.3076 95.3568 27.2393L95.7464 30.1719C95.6507 30.2676 95.4867 30.3154 95.2543 30.3154C95.1449 30.3154 95.0765 30.2812 95.0492 30.2129C94.9261 29.6934 94.7826 29.3037 94.6185 29.0439C94.4681 28.7842 94.2494 28.6133 93.9623 28.5312C93.6752 28.4355 93.2718 28.3877 92.7523 28.3877C91.3168 28.3877 90.5648 28.4902 90.4964 28.6953C90.3734 29.1191 90.3119 29.8027 90.3119 30.7461V38.1494C90.3119 38.9424 90.3734 39.5781 90.4964 40.0566C90.5238 40.1113 90.6263 40.1729 90.8041 40.2412C90.9818 40.3096 91.1732 40.3643 91.3783 40.4053C91.5834 40.4463 91.7269 40.4668 91.8089 40.4668C91.8636 40.4668 91.891 40.5693 91.891 40.7744C91.891 40.8564 91.8773 40.9521 91.85 41.0615C91.1664 41.0342 90.6263 41.0137 90.2298 41C89.8334 40.9727 89.5804 40.959 89.4711 40.959L87.0101 41.0615ZM106.61 41.0615C106.555 41.0068 106.528 40.9043 106.528 40.7539C106.528 40.5625 106.555 40.4668 106.61 40.4668C106.733 40.4668 106.897 40.4531 107.102 40.4258C107.307 40.3848 107.499 40.3301 107.676 40.2617C107.854 40.1934 107.957 40.125 107.984 40.0566C108.039 39.8652 108.073 39.6191 108.086 39.3184C108.114 39.0176 108.127 38.6553 108.127 38.2314V30.8076C108.127 29.6182 108.066 28.9141 107.943 28.6953C107.847 28.4902 107.109 28.3877 105.728 28.3877C105.208 28.3877 104.805 28.4355 104.518 28.5312C104.231 28.6133 104.012 28.7842 103.862 29.0439C103.711 29.3037 103.568 29.6934 103.431 30.2129C103.404 30.2812 103.335 30.3154 103.226 30.3154C102.994 30.3154 102.83 30.2676 102.734 30.1719L103.124 27.2393C103.424 27.3076 103.691 27.3623 103.923 27.4033C104.156 27.4443 104.361 27.4648 104.539 27.4648C105.523 27.4648 106.391 27.4785 107.143 27.5059C107.895 27.5332 108.524 27.5469 109.03 27.5469C110.083 27.5469 110.985 27.5332 111.737 27.5059C112.502 27.4785 113.104 27.4648 113.541 27.4648C113.719 27.4648 113.924 27.4443 114.157 27.4033C114.389 27.3623 114.656 27.3076 114.957 27.2393L115.346 30.1719C115.25 30.2676 115.086 30.3154 114.854 30.3154C114.745 30.3154 114.676 30.2812 114.649 30.2129C114.526 29.6934 114.382 29.3037 114.218 29.0439C114.068 28.7842 113.849 28.6133 113.562 28.5312C113.275 28.4355 112.872 28.3877 112.352 28.3877C110.916 28.3877 110.165 28.4902 110.096 28.6953C109.973 29.1191 109.912 29.8027 109.912 30.7461V38.1494C109.912 38.9424 109.973 39.5781 110.096 40.0566C110.124 40.1113 110.226 40.1729 110.404 40.2412C110.582 40.3096 110.773 40.3643 110.978 40.4053C111.183 40.4463 111.327 40.4668 111.409 40.4668C111.463 40.4668 111.491 40.5693 111.491 40.7744C111.491 40.8564 111.477 40.9521 111.45 41.0615C110.766 41.0342 110.226 41.0137 109.83 41C109.433 40.9727 109.18 40.959 109.071 40.959L106.61 41.0615Z" fill="black"/>
</svg>
