<svg width="60" height="60" viewBox="0 0 60 60" fill="none" xmlns="http://www.w3.org/2000/svg">
<g clip-path="url(#clip0_558_411)">
<path d="M52.5 0H7.5C3.35786 0 0 3.35786 0 7.5V52.5C0 56.6421 3.35786 60 7.5 60H52.5C56.6421 60 60 56.6421 60 52.5V7.5C60 3.35786 56.6421 0 52.5 0Z" fill="black"/>
<path d="M25.905 24.9284V23.2964C25.3455 23.2199 24.777 23.1719 24.1965 23.1719C17.2065 23.1719 11.52 28.8584 11.52 35.8484C11.52 40.1369 13.6635 43.9319 16.932 46.2269C14.8215 43.9619 13.527 40.9274 13.527 37.5959C13.527 30.7064 19.053 25.0874 25.905 24.9269V24.9284Z" fill="#25F4EE"/>
<path d="M26.2049 43.3868C29.3234 43.3868 31.8674 40.9058 31.9829 37.8158L31.9934 10.2143H37.0364C36.9314 9.6473 36.8744 9.0638 36.8744 8.4668H29.9864L29.9759 36.0683C29.8604 39.1598 27.3164 41.6393 24.1979 41.6393C23.2289 41.6393 22.3154 41.3963 21.5129 40.9748C22.5659 42.4328 24.2744 43.3883 26.2064 43.3883L26.2049 43.3868Z" fill="#25F4EE"/>
<path d="M46.4551 19.5816V18.0471C44.5321 18.0471 42.7396 17.4756 41.2366 16.4961C42.5746 18.0321 44.3926 19.1406 46.4551 19.5816Z" fill="#25F4EE"/>
<path d="M41.2381 16.4968C39.7726 14.8138 38.8816 12.6163 38.8816 10.2148H37.0366C37.5226 12.8383 39.0796 15.0898 41.2381 16.4968Z" fill="#FE2C55"/>
<path d="M24.1965 30.0604C21.0045 30.0604 18.4065 32.6569 18.4065 35.8504C18.4065 38.0734 19.668 40.0054 21.51 40.9744C20.823 40.0234 20.4135 38.8579 20.4135 37.5979C20.4135 34.4059 23.0115 31.8079 26.2035 31.8079C26.799 31.8079 27.3705 31.9069 27.912 32.0749V25.0444C27.3525 24.9679 26.784 24.9199 26.2035 24.9199C26.103 24.9199 26.004 24.9259 25.9035 24.9274V30.3274C25.3635 30.1579 24.7905 30.0604 24.195 30.0604H24.1965Z" fill="#FE2C55"/>
<path d="M46.4551 19.582V24.9355C42.8836 24.9355 39.5746 23.7925 36.8731 21.8545V35.851C36.8731 42.841 31.1866 48.5275 24.1966 48.5275C21.4951 48.5275 18.9901 47.6755 16.9321 46.2295C19.2481 48.715 22.5466 50.275 26.2051 50.275C33.1951 50.275 38.8816 44.5885 38.8816 37.5985V23.602C41.5831 25.5415 44.8921 26.683 48.4636 26.683V19.795C47.7751 19.795 47.1031 19.72 46.4566 19.582H46.4551Z" fill="#FE2C55"/>
<path d="M36.8731 35.8494V21.8529C39.5746 23.7924 42.8836 24.9339 46.4551 24.9339V19.5804C44.3926 19.1394 42.5746 18.0309 41.2366 16.4949C39.0781 15.0879 37.5211 12.8364 37.0351 10.2129H31.9921L31.9816 37.8144C31.8661 40.9059 29.3221 43.3854 26.2036 43.3854C24.2716 43.3854 22.5631 42.4314 21.5101 40.9719C19.6666 40.0014 18.4066 38.0709 18.4066 35.8479C18.4066 32.6559 21.0046 30.0579 24.1966 30.0579C24.7921 30.0579 25.3636 30.1569 25.9051 30.3249V24.9249C19.0531 25.0854 13.5271 30.7044 13.5271 37.5939C13.5271 40.9269 14.8216 43.9599 16.9321 46.2249C18.9916 47.6709 21.4951 48.5229 24.1966 48.5229C31.1866 48.5229 36.8731 42.8364 36.8731 35.8464V35.8494Z" fill="white"/>
</g>
<defs>
<clipPath id="clip0_558_411">
<rect width="60" height="60" fill="white"/>
</clipPath>
</defs>
</svg>
