<svg width="1200" height="494" viewBox="0 0 1200 494" fill="none" xmlns="http://www.w3.org/2000/svg">
<path d="M651.917 354.395C653.05 348.199 654.147 342.074 655.28 335.949C658.24 319.782 661.164 303.616 664.124 287.449C665.513 279.864 666.975 272.315 668.254 264.73C670.082 253.834 664.746 247.068 654.512 244.29C651.808 243.578 648.957 243.258 645.996 242.723C645.412 245.608 644.863 248.279 644.315 250.949C640.953 268.255 637.627 285.562 634.264 302.868C631.011 319.675 627.722 336.448 624.469 353.255C624.286 354.11 624.104 354.502 623.08 354.502C606.524 354.502 589.967 354.502 573.374 354.502C573.228 354.502 573.082 354.466 572.753 354.395C578.966 306.82 585.179 259.246 591.429 211.53H651.917C650.309 219.933 648.701 228.373 647.093 236.812C647.202 236.848 647.276 236.919 647.385 236.955C650.053 234.426 652.721 231.898 655.353 229.37C662.297 222.711 669.205 216.088 676.149 209.429C676.551 209.073 677.099 208.645 677.611 208.645C685.359 208.503 693.034 209.037 700.015 212.669C710.724 218.26 718.545 226.379 722.492 237.774C722.639 238.165 722.785 238.557 722.931 238.949C722.931 239.02 723.077 239.091 723.26 239.269C725.453 237.204 727.682 235.103 729.875 233.038C738.099 225.204 746.286 217.37 754.509 209.535C754.948 209.108 755.642 208.61 756.227 208.645C767.228 208.895 777.791 210.782 786.964 217.227C796.248 223.744 801.145 232.646 802.059 243.721C802.79 252.267 801.657 260.671 799.939 268.968C794.091 297.135 788.061 325.266 782.14 353.398C781.957 354.181 781.701 354.537 780.788 354.537C764.158 354.537 747.565 354.537 730.935 354.502C730.826 354.502 730.716 354.466 730.424 354.359C730.899 351.688 731.374 349.018 731.885 346.347C734.7 330.857 737.551 315.367 740.365 299.841C742.338 288.98 744.495 278.19 746.213 267.294C746.834 263.377 746.651 259.317 746.395 255.329C746.213 252.587 744.275 250.522 742.119 248.777C738.391 245.75 733.932 244.397 729.254 243.649C727.427 243.364 725.563 243.115 723.516 242.83C723.589 243.97 723.735 244.931 723.735 245.893C723.881 254.724 722.968 263.448 721.14 272.066C715.329 299.129 709.481 326.156 703.633 353.22C703.451 354.145 703.195 354.537 702.135 354.537C685.688 354.537 669.205 354.537 652.758 354.537C652.502 354.537 652.246 354.466 651.881 354.43L651.917 354.395Z" fill="white" stroke="#222222" stroke-width="2" stroke-miterlimit="10"/>
<path d="M138.921 354.502H136.911C110.925 354.502 84.9757 354.502 58.9896 354.502C58.2221 354.502 57.2353 354.324 56.6505 353.861C44.0412 343.143 32.0168 331.819 22.1852 318.537C16.1547 310.382 10.7455 301.836 7.23681 292.293C4.71496 285.42 3.87434 278.263 3.65505 270.998C3.17992 255.757 6.72513 241.193 11.3303 226.771C17.3973 207.649 26.1324 189.702 36.1102 172.289C39.9113 165.594 43.9316 159.042 47.7692 152.348C48.4271 151.208 49.1215 150.781 50.5103 150.781C70.8314 150.816 91.1158 150.781 111.437 150.781C111.875 150.781 112.277 150.781 112.899 150.781C114.251 144.051 115.567 137.356 116.919 130.555H174.41C167.722 167.802 161.07 205.05 154.418 242.333H95.6113C100.874 213.952 106.137 185.642 111.4 157.369C111.291 157.333 111.218 157.297 111.108 157.262C110.413 158.544 109.756 159.826 109.061 161.108C99.7413 178.841 90.6773 196.646 83.6599 215.376C79.6396 226.166 76.0944 237.098 73.7918 248.386C69.0039 271.889 74.9248 292.649 90.2021 311.166C103.798 327.617 119.733 341.612 137.606 353.541C137.898 353.755 138.227 353.968 138.958 354.467L138.921 354.502Z" fill="white" stroke="#222222" stroke-width="2" stroke-miterlimit="10"/>
<path d="M890.726 210.961C898.913 210.213 906.77 209.465 914.628 208.717C922.961 207.934 931.295 207.151 939.664 206.367C941.272 206.225 942.88 206.189 944.452 205.904C945.695 205.691 946.499 205.975 947.303 206.937C955.124 215.946 961.703 225.632 965.394 237.027C968.026 245.181 968.501 253.478 967.332 261.882C964.59 281.646 956.586 299.521 946.499 316.614C938.75 329.718 929.65 341.897 919.818 353.612C919.38 354.146 918.393 354.431 917.625 354.431C899.57 354.467 881.515 354.431 863.424 354.431H813.206C823.476 281.04 833.71 207.792 843.943 134.543H904.431C899.863 159.968 895.331 185.322 890.762 210.89L890.726 210.961ZM866.128 346.597L866.348 346.704C866.75 346.241 867.152 345.778 867.517 345.28C869.674 342.502 871.83 339.725 873.913 336.876C884.366 322.774 894.234 308.317 901.727 292.471C907.099 281.111 910.9 269.325 910.718 256.577C910.498 241.621 905.089 228.801 894.234 218.19C892.992 216.979 891.603 215.839 890.031 214.451C882.027 258.749 874.059 302.655 866.092 346.562L866.128 346.597Z" fill="white" stroke="#222222" stroke-width="2" stroke-miterlimit="10"/>
<path d="M486.681 211.494C485.585 216.693 484.525 221.785 483.465 226.877C479.883 243.863 476.265 260.849 472.756 277.87C471.367 284.6 470.015 291.33 469.138 298.132C468.041 306.464 467.785 314.797 469.942 323.094C472.537 333.207 478.275 341.219 486.498 347.665C487.558 348.519 488.655 349.338 490.044 350.407C496.074 303.936 502.068 257.786 508.062 211.53H568.55C559.303 259.175 550.093 306.714 540.846 354.502H539.128C505.211 354.502 471.258 354.502 437.34 354.466C436.5 354.466 435.44 354.11 434.782 353.54C421.332 342.003 414.424 327.545 414.205 310.061C414.096 301.8 415.521 293.681 416.69 285.562C418.226 274.95 419.797 264.339 421.332 253.763C422.758 243.934 424.219 234.106 425.645 224.278C426.266 220.076 426.888 215.838 427.509 211.53H486.644L486.681 211.494Z" fill="white" stroke="#222222" stroke-width="2" stroke-miterlimit="10"/>
<path d="M243.888 225.882C242.171 229.977 240.416 234.001 238.808 238.06C233.655 251.414 228.977 264.91 226.674 279.011C225.651 285.457 225.029 292.009 224.773 298.561C224.116 314.799 227.661 330.467 232.376 345.921C232.412 346.064 232.522 346.206 232.668 346.527C232.96 346.064 233.216 345.708 233.399 345.352C242.646 326.55 250.248 307.178 255.072 286.845C257.046 278.584 258.435 270.216 258.362 261.67C258.215 246.749 252.55 234.037 242.097 223.283C235.336 216.339 227.076 211.531 218.377 207.294C217.866 207.045 217.354 206.795 216.404 206.332C218.889 205.976 220.899 205.656 222.946 205.407C236.835 203.555 250.76 201.703 264.648 199.852C270.898 199.033 277.111 198.178 283.361 197.394C283.799 197.323 284.421 197.501 284.786 197.822C299.077 209.929 309.639 224.386 313.842 242.654C315.816 251.236 315.597 259.925 314.098 268.542C311.211 285.528 304.851 301.338 297.249 316.793C291.036 329.434 283.726 341.47 275.905 353.221C275.32 354.112 274.699 354.468 273.602 354.468C245.716 354.468 217.829 354.468 189.906 354.468C188.773 354.468 188.188 354.076 187.604 353.221C178.54 339.334 172.253 324.378 169.329 308.104C166.88 294.43 168.379 281.148 172.655 267.937C177.443 253.337 184.022 239.592 192.501 226.701C192.793 226.238 193.524 225.74 194.073 225.74C210.52 225.704 227.003 225.74 243.45 225.74C243.486 225.74 243.559 225.74 243.779 225.846L243.888 225.882Z" fill="white" stroke="#222222" stroke-width="2" stroke-miterlimit="10"/>
<path d="M1141.85 258.891C1141.08 252.446 1139.15 246.534 1135.68 241.193C1130.12 232.682 1122.85 225.774 1114.59 219.863C1111.08 217.335 1107.46 214.984 1103.77 212.456C1108.78 211.601 1113.64 210.711 1118.57 209.892C1132.9 207.435 1147.26 205.014 1161.59 202.592C1162.1 202.521 1162.83 202.521 1163.2 202.806C1174.86 211.459 1184.83 221.537 1191.01 234.712C1194.55 242.226 1195.94 250.273 1196.31 258.464C1196.67 266.654 1195.61 274.773 1194.41 282.856C1190.86 306.465 1185.34 329.718 1181 353.185C1180.92 353.576 1180.78 354.004 1180.67 354.538H1178.99C1147.55 354.538 1116.16 354.538 1084.73 354.538C1083.56 354.538 1082.75 354.217 1081.99 353.363C1075.26 346.205 1069.3 338.585 1065.5 329.576C1061.19 319.356 1059.69 308.815 1062.5 297.99C1064.3 291.153 1067.84 285.099 1071.86 279.295C1076.87 272.066 1082.72 265.514 1089.51 259.817C1090.14 259.318 1091.09 258.926 1091.89 258.926C1107.93 258.891 1123.94 258.891 1139.99 258.891H1142H1141.85ZM1142.62 260.707C1141.92 260.921 1141.78 260.921 1141.71 260.956C1141.38 261.241 1141.08 261.526 1140.79 261.811C1132.24 269.823 1126.14 279.473 1121.38 289.978C1117.29 299.129 1115.98 308.637 1117.29 318.501C1118.83 330.252 1123.28 340.971 1129.43 351.084C1129.61 351.369 1129.86 351.547 1130.19 351.938C1130.49 349.909 1130.74 348.128 1131 346.312C1132.79 334.347 1134.58 322.347 1136.33 310.382C1138.23 297.563 1140.21 284.779 1141.96 271.959C1142.47 268.327 1142.36 264.624 1142.58 260.707H1142.62Z" fill="white" stroke="#222222" stroke-width="2" stroke-miterlimit="10"/>
<path d="M376.341 354.432H324.881C335.114 281.148 345.348 207.935 355.582 134.65H416.07C402.839 207.899 389.608 281.112 376.341 354.432Z" fill="white" stroke="#222222" stroke-width="2" stroke-miterlimit="10"/>
<path d="M975.116 354.324C981.329 306.714 987.579 259.104 993.793 211.459H1054.28C1053.59 214.984 1052.93 218.474 1052.27 221.964C1048.58 241.015 1044.89 260.066 1041.2 279.081C1037.94 295.889 1034.65 312.661 1031.4 329.469C1029.87 337.374 1028.33 345.279 1026.83 353.22C1026.69 354.039 1026.5 354.502 1025.48 354.502C1008.85 354.502 992.258 354.502 975.628 354.466C975.518 354.466 975.409 354.431 975.116 354.324Z" fill="white" stroke="#222222" stroke-width="2" stroke-miterlimit="10"/>
<path d="M1030.05 195.151C1022.34 195.187 1015.25 193.264 1009.18 188.492C997.923 179.697 997.557 165.346 1008.27 155.981C1019.96 145.761 1039.77 145.583 1051.58 155.625C1056.22 159.577 1059.4 164.42 1059.87 170.616C1060.27 175.53 1058.48 179.839 1055.63 183.72C1050.66 190.522 1043.57 193.727 1035.31 194.831C1034.32 194.973 1033.3 195.044 1032.28 195.115C1031.55 195.151 1030.78 195.115 1030.05 195.115V195.151Z" fill="white" stroke="#222222" stroke-width="2" stroke-miterlimit="10"/>
</svg>
