<svg width="85" height="15" viewBox="0 0 85 15" fill="none" xmlns="http://www.w3.org/2000/svg">
<path d="M5.04492 14.2051C4.7168 14.2051 4.36816 14.1777 3.99902 14.123C3.62988 14.082 3.32227 14.0342 3.07617 13.9795C2.57031 13.8838 2.20117 13.8086 1.96875 13.7539C1.75 13.6855 1.54492 13.6377 1.35352 13.6104C1.17578 12.7627 1.0459 12.0723 0.963867 11.5391C0.881836 10.9922 0.84082 10.5957 0.84082 10.3496C0.84082 10.2676 0.950195 10.2266 1.16895 10.2266C1.41504 10.2266 1.58594 10.2881 1.68164 10.4111C2.16016 12.3799 3.29492 13.3643 5.08594 13.3643C5.76953 13.3643 6.35059 13.1592 6.8291 12.749C7.30762 12.3389 7.54688 11.7578 7.54688 11.0059C7.54688 10.7598 7.49219 10.459 7.38281 10.1035C7.28711 9.74805 7.06152 9.44043 6.70605 9.18066C6.43262 8.97559 6.20703 8.8252 6.0293 8.72949C5.85156 8.62012 5.67383 8.52441 5.49609 8.44238C5.31836 8.34668 5.09277 8.2168 4.81934 8.05273L3.99902 7.56055C3.5752 7.30078 3.15137 7.00684 2.72754 6.67871C2.30371 6.33691 1.94824 5.94043 1.66113 5.48926C1.3877 5.03809 1.25098 4.52539 1.25098 3.95117C1.25098 3.22656 1.43555 2.59766 1.80469 2.06445C2.1875 1.51758 2.67969 1.09375 3.28125 0.792969C3.89648 0.492188 4.55957 0.341797 5.27051 0.341797C5.57129 0.341797 5.85156 0.362305 6.11133 0.40332C6.38477 0.430664 6.61035 0.464844 6.78809 0.505859C7.19824 0.601562 7.48535 0.676758 7.64941 0.731445C7.82715 0.786133 8.06641 0.847656 8.36719 0.916016C8.53125 1.62695 8.61328 2.60449 8.61328 3.84863C8.61328 3.94434 8.54492 3.99219 8.4082 3.99219C8.06641 3.99219 7.88867 3.92383 7.875 3.78711C7.80664 3.37695 7.65625 2.97363 7.42383 2.57715C7.19141 2.18066 6.87695 1.85254 6.48047 1.59277C6.08398 1.31934 5.6123 1.18262 5.06543 1.18262C4.50488 1.18262 4.06738 1.29199 3.75293 1.51074C3.43848 1.71582 3.21289 1.98242 3.07617 2.31055C2.95312 2.625 2.8916 2.95996 2.8916 3.31543C2.8916 3.65723 2.97363 3.99902 3.1377 4.34082C3.30176 4.68262 3.54102 4.96973 3.85547 5.20215C4.2793 5.5166 4.70312 5.81055 5.12695 6.08398C5.56445 6.35742 6.01562 6.6377 6.48047 6.9248C6.91797 7.19824 7.35547 7.50586 7.79297 7.84766C8.23047 8.17578 8.59277 8.55176 8.87988 8.97559C9.18066 9.39941 9.33105 9.8916 9.33105 10.4521C9.33105 11.1768 9.13281 11.8262 8.73633 12.4004C8.33984 12.9609 7.81348 13.4053 7.15723 13.7334C6.51465 14.0479 5.81055 14.2051 5.04492 14.2051ZM20.1945 14.0615C20.1398 14.0068 20.1124 13.9111 20.1124 13.7744C20.1124 13.5967 20.1398 13.5078 20.1945 13.5078C20.3038 13.5078 20.4542 13.4873 20.6456 13.4463C20.8507 13.4053 21.0353 13.3506 21.1993 13.2822C21.3771 13.2002 21.4796 13.125 21.507 13.0566C21.5616 12.8379 21.6027 12.5645 21.63 12.2363C21.6573 11.9082 21.671 11.5254 21.671 11.0879V8.52441C21.671 8.33301 21.5275 7.9502 21.2404 7.37598C21.09 7.10254 20.8029 6.57617 20.379 5.79688C19.9552 5.01758 19.3878 3.99902 18.6769 2.74121C18.4581 2.33105 18.2872 2.05078 18.1642 1.90039C18.0548 1.73633 17.8907 1.5791 17.672 1.42871C17.5216 1.31934 17.296 1.2168 16.9952 1.12109C16.6945 1.02539 16.4757 0.977539 16.339 0.977539C16.2843 0.977539 16.257 0.902344 16.257 0.751953C16.257 0.587891 16.2843 0.478516 16.339 0.423828L17.4464 0.485352C17.7062 0.499023 17.9454 0.512695 18.1642 0.526367C18.3966 0.540039 18.6085 0.546875 18.7999 0.546875C18.964 0.546875 19.8663 0.505859 21.507 0.423828C21.5343 0.478516 21.5411 0.587891 21.5275 0.751953C21.5275 0.902344 21.507 0.977539 21.4659 0.977539C21.2335 0.977539 20.9669 1.03906 20.6661 1.16211C20.379 1.27148 20.2355 1.44238 20.2355 1.6748C20.2355 1.81152 20.3107 2.0166 20.4611 2.29004L22.7579 6.6377C22.84 6.70605 22.9083 6.69238 22.963 6.59668C24.8224 3.79395 25.7521 2.14648 25.7521 1.6543C25.7521 1.50391 25.6154 1.35352 25.3419 1.20312C25.0685 1.05273 24.7335 0.977539 24.337 0.977539C24.2823 0.977539 24.255 0.895508 24.255 0.731445C24.255 0.581055 24.2823 0.478516 24.337 0.423828L26.757 0.546875C26.9757 0.560547 27.1945 0.560547 27.4132 0.546875C27.632 0.519531 27.8507 0.499023 28.0695 0.485352C28.5206 0.444336 28.8077 0.423828 28.9308 0.423828C28.9581 0.533203 28.9718 0.635742 28.9718 0.731445C28.9718 0.895508 28.9445 0.977539 28.8898 0.977539C28.7804 0.977539 28.6095 1.00488 28.3771 1.05957C28.1446 1.11426 27.9122 1.18945 27.6798 1.28516C27.4611 1.38086 27.3038 1.49023 27.2081 1.61328C27.003 1.94141 26.7433 2.3584 26.4288 2.86426C26.1144 3.35645 25.7863 3.88965 25.4445 4.46387C25.1027 5.02441 24.7814 5.56445 24.4806 6.08398C24.1798 6.58984 23.9337 7.02051 23.7423 7.37598C23.5509 7.73145 23.4552 7.9502 23.4552 8.03223V11.1494C23.4552 11.5732 23.4689 11.9424 23.4962 12.2568C23.5236 12.5713 23.5646 12.8379 23.6193 13.0566C23.6466 13.1113 23.7423 13.1797 23.9064 13.2617C24.0841 13.3301 24.2687 13.3916 24.4601 13.4463C24.6515 13.4873 24.7882 13.5078 24.8702 13.5078C24.9249 13.5078 24.9523 13.5967 24.9523 13.7744C24.9523 13.8564 24.9386 13.9521 24.9113 14.0615C24.2277 14.0342 23.6945 14.0137 23.3116 14C22.9288 13.9727 22.6964 13.959 22.6144 13.959L20.1945 14.0615ZM33.9905 14.0615C33.9358 14.0068 33.9084 13.9043 33.9084 13.7539C33.9084 13.5625 33.9358 13.4668 33.9905 13.4668C34.1545 13.4668 34.3664 13.4326 34.6262 13.3643C34.886 13.2959 35.0637 13.2002 35.1594 13.0771C35.3098 12.8857 35.4602 12.6328 35.6106 12.3184C35.7747 12.0039 35.9455 11.6143 36.1233 11.1494L39.6916 1.98242C39.7737 1.77734 39.8215 1.63379 39.8352 1.55176C39.8625 1.46973 39.883 1.40137 39.8967 1.34668C39.9241 1.27832 39.9719 1.16895 40.0403 1.01855C40.136 0.827148 40.2317 0.676758 40.3274 0.567383C40.4231 0.458008 40.5803 0.40332 40.7991 0.40332L40.9836 0.464844L45.0852 11.293C45.2082 11.6074 45.3176 11.8877 45.4133 12.1338C45.5227 12.3799 45.6116 12.5918 45.6799 12.7695C45.7346 12.9062 45.8508 13.0293 46.0286 13.1387C46.22 13.2344 46.4114 13.3164 46.6028 13.3848C46.8079 13.4395 46.9651 13.4668 47.0745 13.4668C47.1291 13.4668 47.1565 13.5967 47.1565 13.8564C47.1565 13.8838 47.1497 13.918 47.136 13.959C47.136 13.9863 47.1291 14.0205 47.1155 14.0615C46.4319 14.0342 45.8987 14.0137 45.5159 14C45.1467 13.9727 44.928 13.959 44.8596 13.959L42.4807 14.0615C42.426 14.0068 42.3987 13.8975 42.3987 13.7334C42.4123 13.5557 42.4465 13.4668 42.5012 13.4668C42.6653 13.4668 42.8704 13.4326 43.1164 13.3643C43.3625 13.2959 43.5061 13.207 43.5471 13.0977C43.5608 13.043 43.5676 12.9883 43.5676 12.9336C43.5813 12.8789 43.5881 12.8242 43.5881 12.7695C43.5881 12.5918 43.5676 12.3867 43.5266 12.1543C43.4856 11.9082 43.4377 11.7168 43.383 11.5801L42.4602 9.03711C42.4192 8.98242 42.3782 8.95508 42.3372 8.95508C41.8039 8.91406 41.2844 8.89355 40.7786 8.89355C40.4231 8.89355 40.0266 8.90723 39.5891 8.93457C39.1653 8.94824 38.6936 8.96875 38.1741 8.99609L38.0715 9.05762L37.1897 11.3135C37.053 11.6553 36.9573 11.9424 36.9026 12.1748C36.8616 12.4072 36.8411 12.5918 36.8411 12.7285C36.8411 12.9199 36.8957 13.0566 37.0051 13.1387C37.1282 13.2344 37.3264 13.3164 37.5998 13.3848C37.8733 13.4395 38.0715 13.4668 38.1946 13.4668C38.2356 13.4668 38.2561 13.5488 38.2561 13.7129C38.2698 13.877 38.2629 13.9932 38.2356 14.0615L36.1233 13.959C35.7405 13.9316 35.3645 13.9385 34.9954 13.9795C34.6399 14.0068 34.3049 14.0342 33.9905 14.0615ZM40.0608 7.90918C40.676 7.90918 41.2981 7.88867 41.927 7.84766L41.9885 7.74512L40.3274 3.21289L38.5637 7.78613C38.5637 7.84082 38.5774 7.86816 38.6047 7.86816C38.9602 7.88184 39.2541 7.89551 39.4866 7.90918C39.7327 7.90918 39.9241 7.90918 40.0608 7.90918ZM56.0101 14.0615C55.9554 14.0068 55.9281 13.9043 55.9281 13.7539C55.9281 13.5625 55.9554 13.4668 56.0101 13.4668C56.1332 13.4668 56.2972 13.4531 56.5023 13.4258C56.7074 13.3848 56.8988 13.3301 57.0765 13.2617C57.2543 13.1934 57.3568 13.125 57.3841 13.0566C57.4388 12.8652 57.473 12.6191 57.4867 12.3184C57.514 12.0176 57.5277 11.6553 57.5277 11.2314V3.80762C57.5277 2.61816 57.4662 1.91406 57.3431 1.69531C57.2474 1.49023 56.5091 1.3877 55.1283 1.3877C54.6087 1.3877 54.2054 1.43555 53.9183 1.53125C53.6312 1.61328 53.4125 1.78418 53.2621 2.04395C53.1117 2.30371 52.9681 2.69336 52.8314 3.21289C52.8041 3.28125 52.7357 3.31543 52.6263 3.31543C52.3939 3.31543 52.2298 3.26758 52.1341 3.17188L52.5238 0.239258C52.8246 0.307617 53.0912 0.362305 53.3236 0.40332C53.556 0.444336 53.7611 0.464844 53.9388 0.464844C54.9232 0.464844 55.7914 0.478516 56.5433 0.505859C57.2953 0.533203 57.9242 0.546875 58.43 0.546875C59.4828 0.546875 60.3851 0.533203 61.1371 0.505859C61.9027 0.478516 62.5043 0.464844 62.9418 0.464844C63.1195 0.464844 63.3246 0.444336 63.557 0.40332C63.7894 0.362305 64.056 0.307617 64.3568 0.239258L64.7464 3.17188C64.6507 3.26758 64.4867 3.31543 64.2543 3.31543C64.1449 3.31543 64.0765 3.28125 64.0492 3.21289C63.9261 2.69336 63.7826 2.30371 63.6185 2.04395C63.4681 1.78418 63.2494 1.61328 62.9623 1.53125C62.6752 1.43555 62.2718 1.3877 61.7523 1.3877C60.3168 1.3877 59.5648 1.49023 59.4964 1.69531C59.3734 2.11914 59.3119 2.80273 59.3119 3.74609V11.1494C59.3119 11.9424 59.3734 12.5781 59.4964 13.0566C59.5238 13.1113 59.6263 13.1729 59.8041 13.2412C59.9818 13.3096 60.1732 13.3643 60.3783 13.4053C60.5834 13.4463 60.7269 13.4668 60.8089 13.4668C60.8636 13.4668 60.891 13.5693 60.891 13.7744C60.891 13.8564 60.8773 13.9521 60.85 14.0615C60.1664 14.0342 59.6263 14.0137 59.2298 14C58.8334 13.9727 58.5804 13.959 58.4711 13.959L56.0101 14.0615ZM75.6098 14.0615C75.5552 14.0068 75.5278 13.9043 75.5278 13.7539C75.5278 13.5625 75.5552 13.4668 75.6098 13.4668C75.7329 13.4668 75.897 13.4531 76.102 13.4258C76.3071 13.3848 76.4985 13.3301 76.6763 13.2617C76.854 13.1934 76.9565 13.125 76.9839 13.0566C77.0386 12.8652 77.0727 12.6191 77.0864 12.3184C77.1138 12.0176 77.1274 11.6553 77.1274 11.2314V3.80762C77.1274 2.61816 77.0659 1.91406 76.9429 1.69531C76.8472 1.49023 76.1089 1.3877 74.728 1.3877C74.2085 1.3877 73.8052 1.43555 73.5181 1.53125C73.2309 1.61328 73.0122 1.78418 72.8618 2.04395C72.7114 2.30371 72.5679 2.69336 72.4311 3.21289C72.4038 3.28125 72.3354 3.31543 72.2261 3.31543C71.9936 3.31543 71.8296 3.26758 71.7339 3.17188L72.1235 0.239258C72.4243 0.307617 72.6909 0.362305 72.9233 0.40332C73.1557 0.444336 73.3608 0.464844 73.5386 0.464844C74.5229 0.464844 75.3911 0.478516 76.1431 0.505859C76.895 0.533203 77.5239 0.546875 78.0298 0.546875C79.0825 0.546875 79.9848 0.533203 80.7368 0.505859C81.5024 0.478516 82.104 0.464844 82.5415 0.464844C82.7192 0.464844 82.9243 0.444336 83.1567 0.40332C83.3891 0.362305 83.6557 0.307617 83.9565 0.239258L84.3462 3.17188C84.2505 3.26758 84.0864 3.31543 83.854 3.31543C83.7446 3.31543 83.6763 3.28125 83.6489 3.21289C83.5259 2.69336 83.3823 2.30371 83.2182 2.04395C83.0679 1.78418 82.8491 1.61328 82.562 1.53125C82.2749 1.43555 81.8716 1.3877 81.352 1.3877C79.9165 1.3877 79.1645 1.49023 79.0962 1.69531C78.9731 2.11914 78.9116 2.80273 78.9116 3.74609V11.1494C78.9116 11.9424 78.9731 12.5781 79.0962 13.0566C79.1235 13.1113 79.2261 13.1729 79.4038 13.2412C79.5815 13.3096 79.7729 13.3643 79.978 13.4053C80.1831 13.4463 80.3266 13.4668 80.4087 13.4668C80.4634 13.4668 80.4907 13.5693 80.4907 13.7744C80.4907 13.8564 80.477 13.9521 80.4497 14.0615C79.7661 14.0342 79.2261 14.0137 78.8296 14C78.4331 13.9727 78.1802 13.959 78.0708 13.959L75.6098 14.0615Z" fill="black"/>
</svg>
